<svg version="1.1" id="Layer_1" xmlns="http://www.w3.org/2000/svg" xmlns:xlink="http://www.w3.org/1999/xlink" x="0px" y="0px"
	 width="100%" viewBox="0 0 512 512" enable-background="new 0 0 512 512" xml:space="preserve">
<path fill="#030301" opacity="1.000000" stroke="none" 
	d="
M119.468658,513.000000 
	C111.760246,509.629730 103.914261,507.145538 97.412292,502.696930 
	C85.448112,494.511139 78.059723,482.807495 76.154678,468.170441 
	C75.474915,462.947601 75.194626,457.638000 75.189110,452.367554 
	C75.125099,391.234528 75.116928,330.101379 75.170799,268.968353 
	C75.184746,253.134995 80.647270,239.438644 92.280373,228.525696 
	C98.417313,222.768661 105.464767,218.192749 113.735672,216.270462 
	C117.247993,215.454132 118.126076,214.084763 118.109566,210.716797 
	C117.989555,186.230850 118.008347,161.743927 118.070160,137.257523 
	C118.114960,119.508057 121.810776,102.462677 128.513962,86.073669 
	C135.308853,69.460403 145.008224,54.577393 157.738144,42.049927 
	C172.718674,27.307638 189.590591,15.000409 210.182343,9.087591 
	C220.225998,6.203600 230.521088,4.195241 240.851196,1.395264 
	C251.020889,1.000000 261.041779,1.000000 271.531342,0.999999 
	C277.482941,2.022623 283.020966,2.814509 288.439270,4.107904 
	C311.623383,9.642170 332.026031,20.296503 349.916626,36.260456 
	C362.197815,47.219051 372.246002,59.780949 379.815460,74.146805 
	C386.860779,87.517883 391.800018,101.728096 394.096466,116.917694 
	C397.423737,138.925552 395.283325,160.983719 395.875763,183.007660 
	C396.034668,188.914398 391.590240,192.943405 385.650818,192.967346 
	C371.652924,193.023727 357.642914,192.659195 343.661621,193.146912 
	C336.713013,193.389313 331.068909,189.198837 331.071899,180.336288 
	C331.076569,166.504791 330.920166,152.671341 331.099670,138.842194 
	C331.481812,109.408005 311.124084,80.872009 283.703735,70.793312 
	C257.324921,61.097466 232.848801,64.738068 210.966415,81.741966 
	C195.914627,93.438103 186.154388,109.073135 183.911926,128.598022 
	C183.538513,131.849365 182.986176,135.110397 182.975967,138.368393 
	C182.897629,163.361633 182.932922,188.355225 182.932922,214.084229 
	C184.748779,214.084229 186.492325,214.084183 188.235870,214.084213 
	C253.893814,214.085358 319.551758,214.092514 385.209686,214.083115 
	C400.280151,214.080948 413.018677,219.674164 423.523102,230.295837 
	C433.678436,240.564499 438.739685,253.221313 438.776245,267.516907 
	C438.940460,331.674622 438.926697,395.833130 438.805298,459.991028 
	C438.759796,484.048523 422.265076,504.820923 399.658722,511.458130 
	C397.936890,511.963684 396.072876,511.985046 394.137482,512.615723 
	C302.645782,513.000000 211.291550,513.000000 119.468658,513.000000 
M287.499939,491.736206 
	C319.159088,491.736084 350.818542,491.817719 382.477325,491.706757 
	C403.134491,491.634369 416.922791,478.388367 416.955872,458.386841 
	C417.060333,395.235291 417.074585,332.083099 416.845001,268.932220 
	C416.826294,263.780853 415.601532,258.198425 413.368500,253.573761 
	C407.135895,240.665848 396.024384,235.678650 381.964752,235.705643 
	C297.986084,235.866806 214.007111,235.873993 130.028244,235.939804 
	C110.882103,235.954803 97.103470,249.243423 97.060562,268.445862 
	C96.918709,331.930573 96.990631,395.415741 97.029083,458.900757 
	C97.033752,466.613403 99.274475,473.627167 104.223679,479.706299 
	C111.561256,488.718964 121.334595,491.765320 132.536316,491.755646 
	C183.857498,491.711365 235.178726,491.736145 287.499939,491.736206 
M308.279663,34.190872 
	C284.545502,22.857407 259.707458,19.782902 233.969818,24.813179 
	C208.482422,29.794550 187.080063,42.152523 169.763306,61.555546 
	C150.983948,82.597366 140.708160,107.195267 140.072937,135.371552 
	C139.513519,160.185562 139.893311,185.020874 139.886490,209.846786 
	C139.886139,211.114471 140.151611,212.382217 140.287476,213.597672 
	C147.351456,213.597672 154.053513,213.597672 160.995392,213.597672 
	C160.995392,211.319565 160.994919,209.495743 160.995468,207.671906 
	C161.002426,184.511932 160.748611,161.348175 161.085983,138.193008 
	C161.464569,112.206657 170.931610,89.592072 189.472946,71.524887 
	C212.031693,49.542999 239.389557,40.511753 270.823029,44.892841 
	C309.393280,50.268631 340.875793,78.493744 349.886139,116.386894 
	C351.903229,124.869843 352.436066,133.783905 352.891144,142.539047 
	C353.389038,152.116989 353.004456,161.740784 353.004456,171.418793 
	C360.379120,171.418793 367.080292,171.418793 374.638275,171.418793 
	C374.095673,155.187820 374.911255,139.229492 372.779846,123.675003 
	C367.214417,83.059906 345.141388,53.571152 308.279663,34.190872 
z"/>
<path fill="#FEC107" opacity="1.000000" stroke="none" 
	d="
M286.999939,491.736145 
	C235.178726,491.736145 183.857498,491.711365 132.536316,491.755646 
	C121.334595,491.765320 111.561256,488.718964 104.223679,479.706299 
	C99.274475,473.627167 97.033752,466.613403 97.029083,458.900757 
	C96.990631,395.415741 96.918709,331.930573 97.060562,268.445862 
	C97.103470,249.243423 110.882103,235.954803 130.028244,235.939804 
	C214.007111,235.873993 297.986084,235.866806 381.964752,235.705643 
	C396.024384,235.678650 407.135895,240.665848 413.368500,253.573761 
	C415.601532,258.198425 416.826294,263.780853 416.845001,268.932220 
	C417.074585,332.083099 417.060333,395.235291 416.955872,458.386841 
	C416.922791,478.388367 403.134491,491.634369 382.477325,491.706757 
	C350.818542,491.817719 319.159088,491.736084 286.999939,491.736145 
M308.874756,344.157745 
	C308.931519,343.660889 308.943207,343.153961 309.051544,342.668610 
	C316.003265,311.521729 292.933167,280.315735 261.316681,278.108429 
	C236.316559,276.363037 213.491394,291.720337 206.036835,315.301971 
	C198.552643,338.977295 208.264038,364.420929 229.897308,377.358276 
	C232.426788,378.870972 233.164551,380.285217 232.700089,383.258240 
	C230.031906,400.337646 227.542847,417.446533 225.167847,434.569672 
	C223.851944,444.056915 228.396561,448.984253 238.102600,448.997925 
	C250.769058,449.015778 263.435577,449.016144 276.102020,448.997772 
	C285.584106,448.984009 290.129150,443.670532 288.747437,434.306274 
	C286.223022,417.197815 283.634888,400.097717 281.327423,382.959961 
	C281.109314,381.339966 282.196655,378.655121 283.519196,377.854797 
	C296.251770,370.149292 304.492188,359.140350 308.874756,344.157745 
z"/>
<path fill="#445963" opacity="1.000000" stroke="none" 
	d="
M308.608948,34.369904 
	C345.141388,53.571152 367.214417,83.059906 372.779846,123.675003 
	C374.911255,139.229492 374.095673,155.187820 374.638275,171.418793 
	C367.080292,171.418793 360.379120,171.418793 353.004456,171.418793 
	C353.004456,161.740784 353.389038,152.116989 352.891144,142.539047 
	C352.436066,133.783905 351.903229,124.869843 349.886139,116.386894 
	C340.875793,78.493744 309.393280,50.268631 270.823029,44.892841 
	C239.389557,40.511753 212.031693,49.542999 189.472946,71.524887 
	C170.931610,89.592072 161.464569,112.206657 161.085983,138.193008 
	C160.748611,161.348175 161.002426,184.511932 160.995468,207.671906 
	C160.994919,209.495743 160.995392,211.319565 160.995392,213.597672 
	C154.053513,213.597672 147.351456,213.597672 140.287476,213.597672 
	C140.151611,212.382217 139.886139,211.114471 139.886490,209.846786 
	C139.893311,185.020874 139.513519,160.185562 140.072937,135.371552 
	C140.708160,107.195267 150.983948,82.597366 169.763306,61.555546 
	C187.080063,42.152523 208.482422,29.794550 233.969818,24.813179 
	C259.707458,19.782902 284.545502,22.857407 308.608948,34.369904 
z"/>
<path fill="#020201" opacity="1.000000" stroke="none" 
	d="
M308.782990,344.564209 
	C304.492188,359.140350 296.251770,370.149292 283.519196,377.854797 
	C282.196655,378.655121 281.109314,381.339966 281.327423,382.959961 
	C283.634888,400.097717 286.223022,417.197815 288.747437,434.306274 
	C290.129150,443.670532 285.584106,448.984009 276.102020,448.997772 
	C263.435577,449.016144 250.769058,449.015778 238.102600,448.997925 
	C228.396561,448.984253 223.851944,444.056915 225.167847,434.569672 
	C227.542847,417.446533 230.031906,400.337646 232.700089,383.258240 
	C233.164551,380.285217 232.426788,378.870972 229.897308,377.358276 
	C208.264038,364.420929 198.552643,338.977295 206.036835,315.301971 
	C213.491394,291.720337 236.316559,276.363037 261.316681,278.108429 
	C292.933167,280.315735 316.003265,311.521729 309.051544,342.668610 
	C308.943207,343.153961 308.931519,343.660889 308.782990,344.564209 
M251.975052,364.503540 
	C253.225601,367.634186 255.801529,370.901306 255.495575,373.871643 
	C254.220764,386.248016 252.044098,398.530090 250.270355,410.857117 
	C249.479874,416.350769 248.860168,421.869019 248.140579,427.552795 
	C254.355072,427.552795 259.945862,427.552795 265.435974,427.552795 
	C265.636658,426.935272 265.864258,426.603577 265.822662,426.309937 
	C263.727875,411.512421 261.613495,396.717743 259.491608,381.924103 
	C259.090790,379.129639 258.532593,376.352570 258.253296,373.546967 
	C257.738495,368.375641 260.920410,364.259125 267.136078,361.807159 
	C285.677460,354.492981 294.108826,335.142914 286.068420,318.357239 
	C279.723236,305.110596 265.757050,297.759827 251.458328,300.141022 
	C237.554932,302.456360 226.696762,314.369385 225.122620,329.035095 
	C223.689560,342.386536 231.852264,355.452667 245.104752,361.079163 
	C247.240189,361.985809 249.318375,363.027283 251.975052,364.503540 
z"/>
<path fill="#445963" opacity="1.000000" stroke="none" 
	d="
M251.699036,364.254974 
	C249.318375,363.027283 247.240189,361.985809 245.104752,361.079163 
	C231.852264,355.452667 223.689560,342.386536 225.122620,329.035095 
	C226.696762,314.369385 237.554932,302.456360 251.458328,300.141022 
	C265.757050,297.759827 279.723236,305.110596 286.068420,318.357239 
	C294.108826,335.142914 285.677460,354.492981 267.136078,361.807159 
	C260.920410,364.259125 257.738495,368.375641 258.253296,373.546967 
	C258.532593,376.352570 259.090790,379.129639 259.491608,381.924103 
	C261.613495,396.717743 263.727875,411.512421 265.822662,426.309937 
	C265.864258,426.603577 265.636658,426.935272 265.435974,427.552795 
	C259.945862,427.552795 254.355072,427.552795 248.140579,427.552795 
	C248.860168,421.869019 249.479874,416.350769 250.270355,410.857117 
	C252.044098,398.530090 254.220764,386.248016 255.495575,373.871643 
	C255.801529,370.901306 253.225601,367.634186 251.699036,364.254974 
z"/>
</svg>